<svg xmlns="http://www.w3.org/2000/svg" viewBox="0 0 256 256">
  <defs>
    <!-- Body gradient (blue Aqua) -->
    <linearGradient id="g-body" x1="0" y1="0" x2="0" y2="1">
      <stop offset="0%" stop-color="#7ec8ff"/>
      <stop offset="45%" stop-color="#3aa7ff"/>
      <stop offset="100%" stop-color="#1e66d2"/>
    </linearGradient>
    <!-- Cap gradient (darker blue) -->
    <linearGradient id="g-cap" x1="0" y1="0" x2="0" y2="1">
      <stop offset="0%" stop-color="#5aa7ff"/>
      <stop offset="100%" stop-color="#2466c9"/>
    </linearGradient>
    <!-- Gloss highlight -->
    <linearGradient id="g-gloss" x1="0" y1="0" x2="0" y2="1">
      <stop offset="0%" stop-color="white" stop-opacity="0.85"/>
      <stop offset="70%" stop-color="white" stop-opacity="0.0"/>
    </linearGradient>
    <!-- Subtle shadow -->
    <filter id="f-shadow" x="-20%" y="-20%" width="140%" height="160%">
      <feDropShadow dx="0" dy="4" stdDeviation="6" flood-color="#000" flood-opacity="0.25"/>
    </filter>
  </defs>

  <!-- Group with shadow -->
  <g filter="url(#f-shadow)">
    <!-- Cap -->
    <path d="M55 92c0-24 34-40 73-40s73 16 73 40c0 11-2 15-8 19-6 4-16 6-26 8-12 2-25 3-39 3s-27-1-39-3c-10-2-20-4-26-8-6-4-8-8-8-19z"
          fill="url(#g-cap)" stroke="#1a4f9c" stroke-width="2" />

    <!-- Stem -->
    <path d="M132 41c0-8 6-14 14-14 3 0 6 1 8 3-4 0-8 5-8 10 0 3 1 6 3 8-3 2-7 3-10 3-4 0-7-4-7-10z"
          fill="#2d75d3" stroke="#1a4f9c" stroke-width="2"/>

    <!-- Body -->
    <path d="M64 120c0 50 32 86 64 86s64-36 64-86c0-10-3-15-9-20-7-5-17-8-27-10-11-2-22-3-28-3s-17 1-28 3c-10 2-20 5-27 10-6 5-9 10-9 20z"
          fill="url(#g-body)" stroke="#1a4f9c" stroke-width="2" />

    <!-- Bottom bevel -->
    <path d="M86 188c12 10 27 16 42 16s30-6 42-16"
          fill="none" stroke="#0e3d87" stroke-opacity="0.25" stroke-width="4" />

    <!-- Gloss highlight on body -->
    <path d="M74 128c0-8 6-14 13-18 10-6 28-10 41-10 9 0 18 1 26 4 6 2 10 4 12 6-6 2-19 3-28 4-18 2-36 6-50 12-9 4-14 6-14 2z"
          fill="url(#g-gloss)"/>

    <!-- Gloss on cap -->
    <path d="M74 99c0-7 25-17 54-17s54 10 54 17c0 3-3 4-8 2-17-6-32-9-46-9s-29 3-46 9c-5 2-8 1-8-2z"
          fill="url(#g-gloss)" opacity="0.7"/>
  </g>
</svg>